# xmcd
#
# Track frame offsets:
# 150
# 18998
# 42891
# 69314
# 95460
# 119610
# 150039
# 174690
# 200189
# 233368
# 258127
# 281862
# 311530
#
# Disc length: 4584 seconds
#
#
# Revision: 0
# Processed by: cddbd v1.5.2PL0 Copyright (c) Steve Scherf et al.
# Submitted via: FreeRIP 2.945 
#
DISCID=a611e60d
DTITLE=Herriot-J1972 - Great-Small05
DYEAR=1972
DGENRE=Jungle
TTITLE0=GS 0501
TTITLE1=GS 0502
TTITLE2=GS 0503
TTITLE3=GS 0504
TTITLE4=GS 0505
TTITLE5=GS 0506
TTITLE6=GS 0507
TTITLE7=GS 0508
TTITLE8=GS 0509
TTITLE9=GS 0510
TTITLE10=GS 0511
TTITLE11=GS 0512
TTITLE12=GS 0513
EXTD=All Creatures Great and Small 12 CDs\nby James Harriot read by ChristopherTimothy\nAudio Renassance - Jungle - Country
EXTT0=
EXTT1=
EXTT2=
EXTT3=
EXTT4=
EXTT5=
EXTT6=
EXTT7=
EXTT8=
EXTT9=
EXTT10=
EXTT11=
EXTT12=
PLAYORDER=
